<svg version="1.1" xmlns="http://www.w3.org/2000/svg" xmlns:xlink="http://www.w3.org/1999/xlink" width="581.814453125" height="317"><defs/><g><text fill="#eeeeee" stroke="none" font-family="Arial" font-size="24px" font-style="normal" font-weight="normal" text-decoration="none" x="0" y="0"></text><text fill="#eeeeee" stroke="none" font-family="Arial" font-size="24px" font-style="normal" font-weight="normal" text-decoration="none" x="0" y="30"></text><text fill="#eeeeee" stroke="none" font-family="Arial" font-size="24px" font-style="normal" font-weight="normal" text-decoration="none" x="0" y="60"></text><text fill="#eeeeee" stroke="none" font-family="Arial" font-size="24px" font-style="normal" font-weight="normal" text-decoration="none" x="0" y="90"></text><text fill="#eeeeee" stroke="none" font-family="Arial" font-size="24px" font-style="normal" font-weight="normal" text-decoration="none" x="0" y="120"></text><text fill="#eeeeee" stroke="none" font-family="Arial" font-size="24px" font-style="normal" font-weight="normal" text-decoration="none" x="0" y="150"></text><text fill="#eeeeee" stroke="none" font-family="Arial" font-size="24px" font-style="normal" font-weight="normal" text-decoration="none" x="0" y="180"></text><text fill="#eeeeee" stroke="none" font-family="Arial" font-size="24px" font-style="normal" font-weight="normal" text-decoration="none" x="0" y="210"></text><text fill="#eeeeee" stroke="none" font-family="Arial" font-size="24px" font-style="normal" font-weight="normal" text-decoration="none" x="0" y="240"></text><text fill="#eeeeee" stroke="none" font-family="Arial" font-size="24px" font-style="normal" font-weight="normal" text-decoration="none" x="0" y="270"></text><text fill="#eeeeee" stroke="none" font-family="Arial" font-size="24px" font-style="normal" font-weight="normal" text-decoration="none" x="0" y="300"></text><text fill="#eeeeee" stroke="none" font-family="Arial" font-size="24px" font-style="normal" font-weight="normal" text-decoration="none" x="200" y="0"></text><text fill="#eeeeee" stroke="none" font-family="Arial" font-size="24px" font-style="normal" font-weight="normal" text-decoration="none" x="200" y="30"></text><text fill="#eeeeee" stroke="none" font-family="Arial" font-size="24px" font-style="normal" font-weight="normal" text-decoration="none" x="200" y="60"></text><text fill="#eeeeee" stroke="none" font-family="Arial" font-size="24px" font-style="normal" font-weight="normal" text-decoration="none" x="200" y="90"></text><text fill="#eeeeee" stroke="none" font-family="Arial" font-size="24px" font-style="normal" font-weight="normal" text-decoration="none" x="200" y="120"></text><text fill="#eeeeee" stroke="none" font-family="Arial" font-size="24px" font-style="normal" font-weight="normal" text-decoration="none" x="200" y="150"></text><text fill="#eeeeee" stroke="none" font-family="Arial" font-size="24px" font-style="normal" font-weight="normal" text-decoration="none" x="200" y="180"></text><text fill="#eeeeee" stroke="none" font-family="Arial" font-size="24px" font-style="normal" font-weight="normal" text-decoration="none" x="200" y="210"></text><text fill="#eeeeee" stroke="none" font-family="Arial" font-size="24px" font-style="normal" font-weight="normal" text-decoration="none" x="200" y="240"></text><text fill="#eeeeee" stroke="none" font-family="Arial" font-size="24px" font-style="normal" font-weight="normal" text-decoration="none" x="200" y="270"></text><text fill="#eeeeee" stroke="none" font-family="Arial" font-size="24px" font-style="normal" font-weight="normal" text-decoration="none" x="200" y="300"></text><text fill="#eeeeee" stroke="none" font-family="Arial" font-size="24px" font-style="normal" font-weight="normal" text-decoration="none" x="400" y="0"></text><text fill="#eeeeee" stroke="none" font-family="Arial" font-size="24px" font-style="normal" font-weight="normal" text-decoration="none" x="400" y="30"></text><text fill="#eeeeee" stroke="none" font-family="Arial" font-size="24px" font-style="normal" font-weight="normal" text-decoration="none" x="400" y="60"></text><text fill="#eeeeee" stroke="none" font-family="Arial" font-size="24px" font-style="normal" font-weight="normal" text-decoration="none" x="400" y="90"></text><text fill="#eeeeee" stroke="none" font-family="Arial" font-size="24px" font-style="normal" font-weight="normal" text-decoration="none" x="400" y="120"></text><text fill="#eeeeee" stroke="none" font-family="Arial" font-size="24px" font-style="normal" font-weight="normal" text-decoration="none" x="400" y="150"></text><text fill="#eeeeee" stroke="none" font-family="Arial" font-size="24px" font-style="normal" font-weight="normal" text-decoration="none" x="400" y="180"></text><text fill="#eeeeee" stroke="none" font-family="Arial" font-size="24px" font-style="normal" font-weight="normal" text-decoration="none" x="400" y="210"></text><text fill="#eeeeee" stroke="none" font-family="Arial" font-size="24px" font-style="normal" font-weight="normal" text-decoration="none" x="400" y="240"></text><text fill="#eeeeee" stroke="none" font-family="Arial" font-size="24px" font-style="normal" font-weight="normal" text-decoration="none" x="400" y="270"></text><text fill="#eeeeee" stroke="none" font-family="Arial" font-size="24px" font-style="normal" font-weight="normal" text-decoration="none" x="400" y="300"></text><g transform="translate(-22,-22) scale(1,1)"><rect fill="#C0C0C0" stroke="none" x="39" y="39" width="415.4150390625" height="297" opacity="0.2"/></g><g transform="translate(-22,-22) scale(1,1)"><rect fill="#ffffff" stroke="none" x="32" y="32" width="415.4150390625" height="297"/></g><g transform="translate(-22,-22) scale(1,1)"><path fill="none" stroke="#000000" d="M 32 32 L 447.4150390625 32 L 447.4150390625 329 L 32 329 L 32 32 Z Z" stroke-miterlimit="10"/></g><g transform="translate(-22,-22) scale(1,1)"><path fill="none" stroke="#000000" d="M 32 57 L 447.4150390625 57" stroke-miterlimit="10"/></g><g transform="translate(-22,-22) scale(1,1)"><g><path fill="none" stroke="none"/><text fill="#000000" stroke="none" font-family="Arial" font-size="13px" font-style="normal" font-weight="bold" text-decoration="none" x="222.00390625" y="51.5">Klijent</text></g></g><g transform="translate(-22,-22) scale(1,1)"><g><path fill="none" stroke="none"/><text fill="#000000" stroke="none" font-family="Arial" font-size="13px" font-style="normal" font-weight="normal" text-decoration="none" x="37" y="74.5">+main(args: String[*]): void</text><path fill="none" stroke="#000000" d="M 37 74.5 L 191.25439453125 74.5" stroke-miterlimit="10"/></g></g><g transform="translate(-22,-22) scale(1,1)"><g><path fill="none" stroke="none"/><text fill="#000000" stroke="none" font-family="Arial" font-size="13px" font-style="normal" font-weight="normal" text-decoration="none" x="37" y="89.5">~kreirajMesto(naziv: String, postanskiBroj: String): String</text><path fill="none" stroke="#000000" d="M 37 89.5 L 363.2060546875 89.5" stroke-miterlimit="10"/></g></g><g transform="translate(-22,-22) scale(1,1)"><g><path fill="none" stroke="none"/><text fill="#000000" stroke="none" font-family="Arial" font-size="13px" font-style="normal" font-weight="normal" text-decoration="none" x="37" y="104.5">~kreirajFilijala(naziv: String, adresa: String, mestoId: int): String</text><path fill="none" stroke="#000000" d="M 37 104.5 L 400.77783203125 104.5" stroke-miterlimit="10"/></g></g><g transform="translate(-22,-22) scale(1,1)"><g><path fill="none" stroke="none"/><text fill="#000000" stroke="none" font-family="Arial" font-size="13px" font-style="normal" font-weight="normal" text-decoration="none" x="37" y="119.5">~kreirajKomitenta(naziv: String, adresa: String, mestoId: int): String</text><path fill="none" stroke="#000000" d="M 37 119.5 L 422.4677734375 119.5" stroke-miterlimit="10"/></g></g><g transform="translate(-22,-22) scale(1,1)"><g><path fill="none" stroke="none"/><text fill="#000000" stroke="none" font-family="Arial" font-size="13px" font-style="normal" font-weight="normal" text-decoration="none" x="37" y="134.5">~promeniSediste(idKom: int, adresa: String, mestoId: int): String</text><path fill="none" stroke="#000000" d="M 37 134.5 L 405.138671875 134.5" stroke-miterlimit="10"/></g></g><g transform="translate(-22,-22) scale(1,1)"><g><path fill="none" stroke="none"/><text fill="#000000" stroke="none" font-family="Arial" font-size="13px" font-style="normal" font-weight="normal" text-decoration="none" x="37" y="149.5">~dohvatiMesta(): String</text><path fill="none" stroke="#000000" d="M 37 149.5 L 171.75439453125 149.5" stroke-miterlimit="10"/></g></g><g transform="translate(-22,-22) scale(1,1)"><g><path fill="none" stroke="none"/><text fill="#000000" stroke="none" font-family="Arial" font-size="13px" font-style="normal" font-weight="normal" text-decoration="none" x="37" y="164.5">~dohvatiFilijale(): String</text><path fill="none" stroke="#000000" d="M 37 164.5 L 173.1953125 164.5" stroke-miterlimit="10"/></g></g><g transform="translate(-22,-22) scale(1,1)"><g><path fill="none" stroke="none"/><text fill="#000000" stroke="none" font-family="Arial" font-size="13px" font-style="normal" font-weight="normal" text-decoration="none" x="37" y="179.5">~dohvatiKomitente(): String</text><path fill="none" stroke="#000000" d="M 37 179.5 L 194.88525390625 179.5" stroke-miterlimit="10"/></g></g><g transform="translate(-22,-22) scale(1,1)"><g><path fill="none" stroke="none"/><text fill="#000000" stroke="none" font-family="Arial" font-size="13px" font-style="normal" font-weight="normal" text-decoration="none" x="37" y="194.5">~otvoriRacun(dozvMinus: int, mestoId: int, idKom: int): String</text><path fill="none" stroke="#000000" d="M 37 194.5 L 386.3369140625 194.5" stroke-miterlimit="10"/></g></g><g transform="translate(-22,-22) scale(1,1)"><g><path fill="none" stroke="none"/><text fill="#000000" stroke="none" font-family="Arial" font-size="13px" font-style="normal" font-weight="normal" text-decoration="none" x="37" y="209.5">~zatvoriRacun(idRac: int): String</text><path fill="none" stroke="#000000" d="M 37 209.5 L 224.49072265625 209.5" stroke-miterlimit="10"/></g></g><g transform="translate(-22,-22) scale(1,1)"><g><path fill="none" stroke="none"/><text fill="#000000" stroke="none" font-family="Arial" font-size="13px" font-style="normal" font-weight="normal" text-decoration="none" x="37" y="224.5">~kreirajPrenos(iznos: int, svrha: String, idRac: int, saRacun: int): String</text><path fill="none" stroke="#000000" d="M 37 224.5 L 443.4150390625 224.5" stroke-miterlimit="10"/></g></g><g transform="translate(-22,-22) scale(1,1)"><g><path fill="none" stroke="none"/><text fill="#000000" stroke="none" font-family="Arial" font-size="13px" font-style="normal" font-weight="normal" text-decoration="none" x="37" y="239.5">~kreirajUplatu(iznos: int, svrha: String, idRac: int, idFil: int): String</text><path fill="none" stroke="#000000" d="M 37 239.5 L 412.33056640625 239.5" stroke-miterlimit="10"/></g></g><g transform="translate(-22,-22) scale(1,1)"><g><path fill="none" stroke="none"/><text fill="#000000" stroke="none" font-family="Arial" font-size="13px" font-style="normal" font-weight="normal" text-decoration="none" x="37" y="254.5">~kreirajIsplatu(iznos: int, svrha: String, idRac: int, idFil: int): String</text><path fill="none" stroke="#000000" d="M 37 254.5 L 413.05419921875 254.5" stroke-miterlimit="10"/></g></g><g transform="translate(-22,-22) scale(1,1)"><g><path fill="none" stroke="none"/><text fill="#000000" stroke="none" font-family="Arial" font-size="13px" font-style="normal" font-weight="normal" text-decoration="none" x="37" y="269.5">~dohvRacun(idKom: int): String</text><path fill="none" stroke="#000000" d="M 37 269.5 L 218.00341796875 269.5" stroke-miterlimit="10"/></g></g><g transform="translate(-22,-22) scale(1,1)"><g><path fill="none" stroke="none"/><text fill="#000000" stroke="none" font-family="Arial" font-size="13px" font-style="normal" font-weight="normal" text-decoration="none" x="37" y="284.5">~dohvTransakciju(idRac: int): String</text><path fill="none" stroke="#000000" d="M 37 284.5 L 242.79736328125 284.5" stroke-miterlimit="10"/></g></g><g transform="translate(-22,-22) scale(1,1)"><g><path fill="none" stroke="none"/><text fill="#000000" stroke="none" font-family="Arial" font-size="13px" font-style="normal" font-weight="normal" text-decoration="none" x="37" y="299.5">~dohvSve(): String</text><path fill="none" stroke="#000000" d="M 37 299.5 L 145.0244140625 299.5" stroke-miterlimit="10"/></g></g><g transform="translate(-22,-22) scale(1,1)"><g><path fill="none" stroke="none"/><text fill="#000000" stroke="none" font-family="Arial" font-size="13px" font-style="normal" font-weight="normal" text-decoration="none" x="37" y="314.5">~dohvRazlike(): String</text><path fill="none" stroke="#000000" d="M 37 314.5 L 165.248046875 314.5" stroke-miterlimit="10"/></g></g><g transform="translate(-22,-22) scale(1,1)"><rect fill="#C0C0C0" stroke="none" x="519" y="47" width="55.2490234375" height="44" opacity="0.2"/></g><g transform="translate(-22,-22) scale(1,1)"><rect fill="#ffffff" stroke="none" x="512" y="40" width="55.2490234375" height="44"/></g><g transform="translate(-22,-22) scale(1,1)"><path fill="none" stroke="#000000" d="M 512 40 L 567.2490234375 40 L 567.2490234375 84 L 512 84 L 512 40 Z Z" stroke-miterlimit="10"/></g><g transform="translate(-22,-22) scale(1,1)"><path fill="none" stroke="#000000" d="M 512 65 L 567.2490234375 65" stroke-miterlimit="10"/></g><g transform="translate(-22,-22) scale(1,1)"><path fill="none" stroke="#000000" d="M 512 75 L 567.2490234375 75" stroke-miterlimit="10"/></g><g transform="translate(-22,-22) scale(1,1)"><g><path fill="none" stroke="none"/><text fill="#000000" stroke="none" font-family="Arial" font-size="13px" font-style="normal" font-weight="bold" text-decoration="none" x="517.594970703125" y="59.5">JFrame</text></g></g><g transform="translate(-22,-22) scale(1,1)"><rect fill="#C0C0C0" stroke="none" x="519" y="175" width="50.919921875" height="44" opacity="0.2"/></g><g transform="translate(-22,-22) scale(1,1)"><rect fill="#ffffff" stroke="none" x="512" y="168" width="50.919921875" height="44"/></g><g transform="translate(-22,-22) scale(1,1)"><path fill="none" stroke="#000000" d="M 512 168 L 562.919921875 168 L 562.919921875 212 L 512 212 L 512 168 Z Z" stroke-miterlimit="10"/></g><g transform="translate(-22,-22) scale(1,1)"><path fill="none" stroke="#000000" d="M 512 193 L 562.919921875 193" stroke-miterlimit="10"/></g><g transform="translate(-22,-22) scale(1,1)"><path fill="none" stroke="#000000" d="M 512 203 L 562.919921875 203" stroke-miterlimit="10"/></g><g transform="translate(-22,-22) scale(1,1)"><g><path fill="none" stroke="none"/><text fill="#000000" stroke="none" font-family="Arial" font-size="13px" font-style="normal" font-weight="bold" text-decoration="none" x="522.29541015625" y="187.5">Okvir</text></g></g><g transform="translate(-22,-22) scale(1,1)"><rect fill="#C0C0C0" stroke="none" x="495" y="287" width="105.814453125" height="44" opacity="0.2"/></g><g transform="translate(-22,-22) scale(1,1)"><rect fill="#ffffff" stroke="none" x="488" y="280" width="105.814453125" height="44"/></g><g transform="translate(-22,-22) scale(1,1)"><path fill="none" stroke="#000000" d="M 488 280 L 593.814453125 280 L 593.814453125 324 L 488 324 L 488 280 Z Z" stroke-miterlimit="10"/></g><g transform="translate(-22,-22) scale(1,1)"><path fill="none" stroke="#000000" d="M 488 305 L 593.814453125 305" stroke-miterlimit="10"/></g><g transform="translate(-22,-22) scale(1,1)"><path fill="none" stroke="#000000" d="M 488 315 L 593.814453125 315" stroke-miterlimit="10"/></g><g transform="translate(-22,-22) scale(1,1)"><g><path fill="none" stroke="none"/><text fill="#000000" stroke="none" font-family="Arial" font-size="13px" font-style="normal" font-weight="bold" text-decoration="none" x="495.016845703125" y="299.5">PanelGenerator</text></g></g><g transform="translate(-22,-22) scale(1,1)"><path fill="none" stroke="#000000" d="M 539 85 L 537 167" stroke-miterlimit="10"/></g><g transform="translate(-22,-22) scale(1,1)"><path fill="#FFFFFF" stroke="none" d="M 529.0790603947485 146.4754119220395 L 537 167 L 545.912125302744 146.88597448077113"/></g><g transform="translate(-22,-22) scale(1,1)"><path fill="none" stroke="#000000" d="M 529.0790603947485 146.4754119220395 L 537 167 L 545.912125302744 146.88597448077113 L 529.0790603947485 146.4754119220395" stroke-miterlimit="10"/></g></g></svg>